<svg xmlns="http://www.w3.org/2000/svg" viewBox="0 0 162.09 162.09"><defs><style>.cls-1{fill:#f9c450;}.cls-2{font-size:10.63px;font-family:Gibson-Regular, Gibson;}.cls-2,.cls-7{fill:#3e496d;}.cls-3{letter-spacing:-0.02em;}.cls-4{letter-spacing:0em;}.cls-5{font-family:Gibson-SemiBold, Gibson;font-weight:700;}.cls-6{letter-spacing:-0.09em;}</style></defs><title>condicoes-habitacionais</title><g id="Camada_2" data-name="Camada 2"><g id="Camada_1-2" data-name="Camada 1"><rect class="cls-1" width="162.09" height="162.09" rx="3" ry="3"/><text class="cls-2" transform="translate(14.25 132.84)"><tspan class="cls-3">C</tspan><tspan x="6.86" y="0">ONDI</tspan><tspan class="cls-3" x="33.01" y="0">Ç</tspan><tspan class="cls-4" x="39.87" y="0">ÕES</tspan><tspan class="cls-5"><tspan x="0" y="13.29">HABI</tspan><tspan class="cls-6" x="24.64" y="13.29">T</tspan><tspan class="cls-3" x="29.27" y="13.29">A</tspan><tspan class="cls-4" x="36.29" y="13.29">CIONAIS</tspan></tspan></text><g id="J8aQVV.tif"><path class="cls-7" d="M81.08,41.31l19.28,15.9c2.52,2.07,5.09,4.09,7.53,6.25a3.53,3.53,0,0,1,1.1,2.31c.09,7.17.06,14.35.05,21.52,0,2.77-.94,3.7-3.64,3.71H89.13c-.57,0-1.13,0-1.87-.09V72.54H75V90.87c-.69,0-1.24.12-1.79.12q-8.31,0-16.62,0c-2.39,0-3.42-1-3.43-3.37,0-7.35,0-14.7,0-22A2.88,2.88,0,0,1,54,63.66C63,56.21,72,48.81,81.08,41.31Z"/><path class="cls-7" d="M81.07,37l-16,13.32q-8.59,7.17-17.2,14.34c-1.17,1-2.16.94-3.12-.29-.72-.92-1.48-1.8-2.24-2.68-1-1.11-.83-2.05.29-3Q53.93,49.51,65,40.25c3.81-3.17,7.63-6.33,11.42-9.52,3.23-2.72,6-2.73,9.24,0,3.51,3,7,5.9,11,9.21,0-2.26,0-4.08,0-5.9,0-5.66-.57-5.17,5.15-5.17,1.52,0,3,0,4.55,0,2.42,0,2.67.25,2.67,2.74,0,5.72,0,11.44,0,17.15a3.55,3.55,0,0,0,1.07,2.33c2.84,2.51,5.79,4.89,8.7,7.31,1.74,1.45,1.81,2,.42,3.7-.63.76-1.28,1.52-1.89,2.3-1,1.3-2,1.25-3.27.22-4.63-3.91-9.3-7.78-14-11.66Z"/></g></g></g></svg>