<svg xmlns="http://www.w3.org/2000/svg" viewBox="0 0 162.09 162.09"><defs><style>.cls-1{fill:#f9c450;}.cls-2{font-size:10.63px;font-family:Gibson-Regular, Gibson;}.cls-2,.cls-7{fill:#3e496d;}.cls-3{letter-spacing:-0.02em;}.cls-4{letter-spacing:0em;}.cls-5{font-family:Gibson-SemiBold, Gibson;font-weight:700;}.cls-6{letter-spacing:-0.09em;}</style></defs><title>condicoes</title><g id="Camada_2" data-name="Camada 2"><g id="Camada_1-2" data-name="Camada 1"><rect class="cls-1" width="162.09" height="162.09" rx="3" ry="3"/><text class="cls-2" transform="translate(13.97 132.84)"><tspan class="cls-3">C</tspan><tspan x="6.86" y="0">ONDI</tspan><tspan class="cls-3" x="33.01" y="0">Ç</tspan><tspan class="cls-4" x="39.87" y="0">ÕES</tspan><tspan class="cls-5"><tspan x="0" y="13.29">HABI</tspan><tspan class="cls-6" x="24.64" y="13.29">T</tspan><tspan class="cls-3" x="29.27" y="13.29">A</tspan><tspan x="36.29" y="13.29">CIONAIS</tspan></tspan></text><g id="lODNIw.tif"><path class="cls-7" d="M118.66,79.08c-.44-.19-.76-1.11-.77-1.69-.07-3.86,0-7.73-.06-11.59a2.74,2.74,0,0,0-.44-1.77c-2.93-2.87-5.94-5.66-9-8.53-2.77,2.61-5.35,5.12-8,7.52a4,4,0,0,0-1.53,3.49c.12,2.5,0,5,0,7.51l-.64,0c0-.65-.13-1.3-.14-2,0-5.22,0-10.43,0-15.65a4.21,4.21,0,0,0-1.12-2.62c-2.58-2.61-5.31-5.07-8-7.58l-6.08-5.73c-5,4.68-9.79,9.2-14.56,13.81a3.05,3.05,0,0,0-.67,2c-.06,5.35,0,10.69,0,16a14,14,0,0,1-.24,1.79l-.62-.07c0-2.74,0-5.49,0-8.23A3,3,0,0,0,66.13,64c-2.88-2.83-5.86-5.57-8.93-8.45-2.84,2.67-5.66,5.21-8.33,7.89a4.2,4.2,0,0,0-1.09,2.64c-.12,3.79,0,7.6-.09,11.39,0,.61-.27,1.56-.69,1.74-3.68,1.65-7.43,3.15-11.16,4.69v.39l1,1.34c31.9-14.65,63.54-14.14,95,1.27l1-1.06V85C128.11,83.06,123.36,81.13,118.66,79.08ZM54.92,66.75h1.71v1.64H54.92Zm1.76,4.33H54.92V69.5h1.76Zm2.74,0H57.73c0-.47,0-1-.08-1.64h1.77Zm0-2.67H57.75V66.79h1.67ZM79.67,55.58H82v2.2H79.67ZM82,61.37H79.67V59.26H82Zm3.65,0H83.43c0-.63-.07-1.3-.11-2.2h2.35Zm0-3.57H83.46v-2.2h2.22Zm20.64,8.92H108v1.64h-1.71Zm1.76,4.33h-1.76V69.5h1.76Zm2.73,0h-1.68c0-.47,0-1-.08-1.64h1.76Zm0-2.67h-1.67V66.79h1.67Z"/><path class="cls-7" d="M82.86,33.64l20.33,19.14-2.44,2.62L82.87,38.58,65,55.37l-2.47-2.6Z"/><path class="cls-7" d="M108.36,50.72,121,62.63l-1.86,1.95L108.36,54.45,99,63.18c-.3-2.14-.33-3.65,1.34-5C103.13,55.84,105.65,53.26,108.36,50.72Z"/><path class="cls-7" d="M66.3,62.94l-9.06-8.49L46.4,64.64l-1.9-1.91,12.74-12c3.07,2.89,6.11,5.56,8.88,8.5.71.75.55,2.31.79,3.5Z"/></g></g></g></svg>