<svg xmlns="http://www.w3.org/2000/svg" viewBox="0 0 162.09 162.09"><defs><style>.cls-1{fill:#f9c450;}.cls-2{font-size:10.63px;font-family:Gibson-Regular, Gibson;}.cls-2,.cls-8{fill:#3e496d;}.cls-3{letter-spacing:-0.01em;}.cls-4{letter-spacing:-0.02em;}.cls-5{letter-spacing:0em;}.cls-6{font-family:Gibson-SemiBold, Gibson;font-weight:700;}.cls-7{letter-spacing:-0.02em;}</style></defs><title>despesas_1</title><g id="Camada_2" data-name="Camada 2"><g id="Camada_1-2" data-name="Camada 1"><rect class="cls-1" width="162.09" height="162.09" rx="3" ry="3"/><text class="cls-2" transform="translate(14.25 132.84)">DESPE<tspan class="cls-3" x="29.9" y="0">S</tspan><tspan class="cls-4" x="35.41" y="0">A</tspan><tspan class="cls-5" x="42.11" y="0">S</tspan><tspan class="cls-6"><tspan x="0" y="13.29">B</tspan><tspan class="cls-4" x="6.62" y="13.29">Á</tspan><tspan class="cls-5" x="13.64" y="13.29">SIC</tspan><tspan class="cls-7" x="29.47" y="13.29">A</tspan><tspan x="36.49" y="13.29">S</tspan></tspan></text><g id="AqhNN9.tif"><path class="cls-8" d="M79.52,27.66a7,7,0,0,1,1,.4,4.54,4.54,0,0,1,1.8,2.23c.18.41.33.83.5,1.25a1.1,1.1,0,0,0,.14.26,1.17,1.17,0,0,0,1.51.54,5.42,5.42,0,0,0,1.38-.79l.59-.44a4.58,4.58,0,0,1,3.1-.84,1.63,1.63,0,0,1,1.56,1.62,4,4,0,0,1-.51,2c-.46.92-.9,1.87-1.27,2.82a28.37,28.37,0,0,0-1.61,5.66,13.46,13.46,0,0,0-.21,3.11,1.6,1.6,0,0,1-.63,1.31A5.53,5.53,0,0,1,85,47.89a15.46,15.46,0,0,1-7.06,1,25.26,25.26,0,0,1-5-.89,5.44,5.44,0,0,1-1.79-.84,1.74,1.74,0,0,1-.49-.59c-.48-1.09-1-2.18-1.4-3.29-.75-1.89-1.46-3.79-2.22-5.68-.25-.62-.59-1.2-.86-1.81a3.59,3.59,0,0,1-.32-1.55,1.39,1.39,0,0,1,1.36-1.44,6.89,6.89,0,0,1,1.36.06A15.56,15.56,0,0,0,73.1,33a2.85,2.85,0,0,0,2.48-2.16,5.28,5.28,0,0,1,.31-.78,4.15,4.15,0,0,1,2.35-2.21c.17-.06.35-.09.52-.14Z"/><path class="cls-8" d="M80.62,93.59c-2.48-.08-5-.14-7.43-.26-2-.09-4-.29-5.93-.57a34.74,34.74,0,0,1-7.06-1.68A15.68,15.68,0,0,1,55,88a12.34,12.34,0,0,1-3.55-5.8,23,23,0,0,1-.82-6.3,21.92,21.92,0,0,1,1.76-8.61,29.07,29.07,0,0,1,4.84-7.81,32.43,32.43,0,0,1,7-6.2,28,28,0,0,1,6.08-3,.32.32,0,0,1,.34.05,10.75,10.75,0,0,0,5.1,2,24.69,24.69,0,0,0,5.89.09,16.19,16.19,0,0,0,4.45-1,8.71,8.71,0,0,0,2.77-1.74.63.63,0,0,1,.68-.16,30.32,30.32,0,0,1,8.1,3.71,34.53,34.53,0,0,1,6.14,5,30.41,30.41,0,0,1,5.74,8.07,22.39,22.39,0,0,1,1.94,6,21,21,0,0,1,.23,4.62,21.49,21.49,0,0,1-.68,4.66,12.86,12.86,0,0,1-3.65,6.21A15.44,15.44,0,0,1,103,90.55a29.26,29.26,0,0,1-6.61,1.91,56.78,56.78,0,0,1-5.8.75C87.25,93.48,83.94,93.55,80.62,93.59Zm-3-32.92-.23.07a8.5,8.5,0,0,0-1.87.78,5.37,5.37,0,0,0-2.55,6.13A5.06,5.06,0,0,0,75,70.51a14.38,14.38,0,0,0,3.62,1.74,6.53,6.53,0,0,1,1.85.92,2.09,2.09,0,0,1,.84,2.24,1.88,1.88,0,0,1-1.46,1.41,6.2,6.2,0,0,1-2.81,0,8.9,8.9,0,0,1-3-1.08.39.39,0,0,0-.59.16c-.23.87-.47,1.74-.7,2.62a1.48,1.48,0,0,0,0,.47.38.38,0,0,0,.18.25c.26.12.53.21.8.31a13.36,13.36,0,0,0,3.28.93l.82.07V83c0,.44.19.64.64.64h2.27c.47,0,.66-.19.66-.66,0-.79,0-1.58,0-2.38,0-.19,0-.28.25-.33a7.52,7.52,0,0,0,2.41-1.1,4.93,4.93,0,0,0,2-2.71,6.14,6.14,0,0,0,.14-2,5.66,5.66,0,0,0-.6-2.38,6.17,6.17,0,0,0-2.83-2.68c-.82-.4-1.7-.71-2.55-1.06a8.75,8.75,0,0,1-2.09-1.06A1.44,1.44,0,0,1,78,65a2.52,2.52,0,0,1,1.44-.66,7.31,7.31,0,0,1,2.09,0,6.33,6.33,0,0,1,2.47.82c.38.23.61.14.72-.27l.69-2.59c.1-.36,0-.52-.32-.64l-.31-.12a8.89,8.89,0,0,0-3-.84l-.63,0V58.26a.56.56,0,0,0-.6-.63H78.18a.55.55,0,0,0-.6.62Z"/></g></g></g></svg>