<svg xmlns="http://www.w3.org/2000/svg" viewBox="0 0 162.09 162.09"><defs><style>.cls-1{fill:#f9c450;}.cls-2{font-size:10.63px;font-family:Gibson-Regular, Gibson;}.cls-2,.cls-8{fill:#3e496d;}.cls-3{letter-spacing:-0.01em;}.cls-4{letter-spacing:-0.02em;}.cls-5{letter-spacing:0em;}.cls-6{font-family:Gibson-SemiBold, Gibson;font-weight:700;}.cls-7{letter-spacing:-0.05em;}</style></defs><title>despesas</title><g id="Camada_2" data-name="Camada 2"><g id="Camada_1-2" data-name="Camada 1"><rect class="cls-1" width="162.09" height="162.09" rx="3" ry="3"/><text class="cls-2" transform="translate(14.25 132.84)">DESPE<tspan class="cls-3" x="29.9" y="0">S</tspan><tspan class="cls-4" x="35.41" y="0">A</tspan><tspan class="cls-5" x="42.11" y="0">S </tspan><tspan class="cls-4" x="49.9" y="0">D</tspan><tspan x="56.98" y="0">A</tspan><tspan class="cls-6"><tspan class="cls-7" x="0" y="13.29">F</tspan><tspan x="5.07" y="13.29">AMÍLIA</tspan></tspan></text><g id="fyiueK.tif"><path class="cls-8" d="M81,89.37H77.65l-.19,0c-1.08,0-2.16,0-3.24-.09-1.88-.11-3.76-.22-5.64-.39a36.41,36.41,0,0,1-5.49-.94,20.94,20.94,0,0,1-4.74-1.76,11.22,11.22,0,0,1-5.8-7.3,20.22,20.22,0,0,1-.62-4.09,19.87,19.87,0,0,1,.41-5.44,23.67,23.67,0,0,1,3.88-8.51,28.75,28.75,0,0,1,6-6.29,26.51,26.51,0,0,1,7.3-4,.43.43,0,0,1,.47.08,7.88,7.88,0,0,0,1.61.94,12.43,12.43,0,0,0,4.16.92,22.21,22.21,0,0,0,6.09-.37,9.41,9.41,0,0,0,3.29-1.26c.41-.26.78-.59,1.17-.89.13-.1.24-.23.45-.17a26.64,26.64,0,0,1,4.73,1.84,30.93,30.93,0,0,1,8.43,6.24,26.35,26.35,0,0,1,5.39,8,18.45,18.45,0,0,1,1.49,6,20.92,20.92,0,0,1-.48,6.36,11.78,11.78,0,0,1-2.85,5.47,13.63,13.63,0,0,1-4.78,3.18,30.76,30.76,0,0,1-8,2c-1.39.18-2.79.3-4.19.39s-3,.13-4.48.19ZM76.17,59.79a1.52,1.52,0,0,1-.2.06,7.46,7.46,0,0,0-1.68.7,4.84,4.84,0,0,0-2.38,5.22,4.42,4.42,0,0,0,1.82,2.76A11.86,11.86,0,0,0,76.6,70c.59.23,1.19.45,1.75.73A2,2,0,0,1,79.6,72.4a1.67,1.67,0,0,1-.91,1.74,2.89,2.89,0,0,1-1.38.32,8.12,8.12,0,0,1-4.23-1.06.35.35,0,0,0-.59.23c0,.05,0,.09,0,.14l-.6,2.2c-.09.35,0,.48.3.61l.19.07a14,14,0,0,0,2.82.9c.4.08.82.11,1.24.16v2.13c0,.4.18.58.57.58h2c.44,0,.61-.17.61-.61,0-.72,0-1.43,0-2.15a.23.23,0,0,1,.2-.27,6.57,6.57,0,0,0,2.19-1A4.4,4.4,0,0,0,83.83,74,5.38,5.38,0,0,0,84,72.13a5.14,5.14,0,0,0-.63-2.33,5.56,5.56,0,0,0-2.45-2.23c-.8-.39-1.65-.69-2.48-1a7.08,7.08,0,0,1-1.69-.86,1.3,1.3,0,0,1-.12-2,2.21,2.21,0,0,1,1.3-.6,6.89,6.89,0,0,1,1.87,0,5.67,5.67,0,0,1,2.23.75c.32.2.54.12.64-.25l.63-2.35c.08-.31,0-.45-.29-.55l-.28-.11a8.55,8.55,0,0,0-2.37-.72c-.31,0-.61-.06-.93-.08V57.63a.5.5,0,0,0-.57-.57H76.74a.5.5,0,0,0-.57.57Z"/><path class="cls-8" d="M77.59,49.27a22,22,0,0,1-6-1,5.72,5.72,0,0,1-1.15-.6,1.32,1.32,0,0,1-.46-.53c-.43-1-.85-2-1.25-3-.68-1.7-1.32-3.42-2-5.12-.22-.56-.53-1.08-.77-1.63A3,3,0,0,1,65.63,36a1.26,1.26,0,0,1,1.25-1.31,8.36,8.36,0,0,1,1.32.08,19,19,0,0,0,3.2.15A4.37,4.37,0,0,0,73,34.6a2.38,2.38,0,0,0,1.33-1.53,5,5,0,0,1,.94-1.79,3.25,3.25,0,0,1,1.81-1.13,2.47,2.47,0,0,1,2.28.69,5.56,5.56,0,0,1,1.37,2.28,4,4,0,0,0,.39.81,1,1,0,0,0,1.14.42,4,4,0,0,0,1.24-.65l.67-.49a4.12,4.12,0,0,1,2.78-.76,1.47,1.47,0,0,1,1.41,1.46,3.52,3.52,0,0,1-.46,1.82,27.1,27.1,0,0,0-1.16,2.58,25,25,0,0,0-1.43,5,11.49,11.49,0,0,0-.18,2.81,1.48,1.48,0,0,1-.57,1.18,5.08,5.08,0,0,1-1.68,1A14.29,14.29,0,0,1,77.59,49.27Z"/></g></g></g></svg>