<svg xmlns="http://www.w3.org/2000/svg" viewBox="0 0 162.09 162.09"><defs><style>.cls-1{fill:#f9c450;}.cls-2{font-size:10.63px;font-family:Gibson-SemiBold, Gibson;font-weight:700;}.cls-2,.cls-5{fill:#3e496d;}.cls-3{letter-spacing:-0.02em;}.cls-4{letter-spacing:-0.02em;}</style></defs><title>escolas</title><g id="Camada_2" data-name="Camada 2"><g id="Camada_1-2" data-name="Camada 1"><rect class="cls-1" width="162.09" height="162.09" rx="3" ry="3"/><text class="cls-2" transform="translate(14.25 146.12)">ES<tspan class="cls-3" x="11.78" y="0">C</tspan><tspan x="18.47" y="0">OL</tspan><tspan class="cls-4" x="31.88" y="0">A</tspan><tspan x="38.89" y="0">S</tspan></text><g id="R8a4Vi.tif"><path class="cls-5" d="M126.41,91H39.84v-6.6c1.1-.17,1.1-.17,1.1-1.32,0-3.74.05-7.47,0-11.21a46.92,46.92,0,0,1,.81-10.17c.55-2.75.94-5.54,1.38-8.32.1-.61.29-.86,1-.86,7.05,0,14.11,0,21.17,0H66l.08.13c-.47.4-.93.81-1.41,1.21q-2.32,1.9-4.64,3.82c-.16.13-.37.35-.37.52,0,2.76,0,5.53,0,8.5l3.24-2.64.1,1H64.5V83.47c0,.81.56,1.18,1.33.85a.46.46,0,0,0,.22-.3,1.38,1.38,0,0,0,0-.41V63.89c0-.2,0-.4,0-.67h-1.5V60.78c.06,0,.1-.08.13-.08,1.66.32,2.68-.8,3.8-1.67q4.8-3.73,9.59-7.48c1.14-.89,2.29-1.78,3.41-2.7a.72.72,0,0,1,1.07-.06c4.9,3.64,9.83,7.24,14.73,10.87a2.83,2.83,0,0,0,2.21.74,6.65,6.65,0,0,1,.91,0c0,.78,0,1.49,0,2.19,0,.12-.25.3-.4.32a4.65,4.65,0,0,1-.92,0V84.25c.06,0,.1.08.14.08,1.28.09,1.28.09,1.28-1.2,0-5.83,0-11.67,0-17.5,0-.65.15-1,.84-.85.45.08.62-.15.58-.59s0-.6,0-1l4.58,3.36a6,6,0,0,0,.07-.7c0-2.42,0-4.84,0-7.26a1.23,1.23,0,0,0-.41-.83c-2-1.55-4-3.05-6.07-4.57-.17-.13-.32-.3-.61-.57h.76c6.87,0,13.74,0,20.61,0,.54,0,.76.12.85.68.7,4.35,1.43,8.68,2.15,13a6.29,6.29,0,0,1,0,1c0,5.42,0,10.84,0,16.26,0,.7.18,1,.89.88a14.28,14.28,0,0,1,1.73,0ZM93.64,62.48l0-.2H71.07l-.07.89-1.4.07V84.31h1.5v-.85c0-5.88,0-11.76,0-17.64,0-.63.16-.82.81-.81,6.8,0,13.6,0,20.4,0,.25,0,.49,0,.79,0V84.31c.23,0,.41,0,.59,0,1.24,0,1.15.17,1.15-1.15V64.8a12.67,12.67,0,0,0,0-1.38,1,1,0,0,0-.4-.49A7.37,7.37,0,0,0,93.64,62.48Zm12,11.21c1.13,0,2.26,0,3.39,0,.4,0,.58-.12.57-.55q0-1.59,0-3.18c0-.48-.21-.57-.62-.57q-3.28,0-6.57,0c-.44,0-.62.12-.61.58,0,1,0,2.08,0,3.11,0,.51.2.62.66.61C103.53,73.67,104.59,73.69,105.65,73.69Zm-47.39.44c1.11,0,2.21,0,3.32,0,.44,0,.62-.13.61-.59,0-1,0-2.07,0-3.11,0-.39-.11-.59-.55-.58-2.23,0-4.47,0-6.7,0-.47,0-.59.19-.58.61,0,1,0,2,0,3,0,.51.19.64.65.63C56.1,74.11,57.18,74.13,58.26,74.13Zm0,2.5c-1.06,0-2.12,0-3.18,0-.59,0-.75.19-.73.75,0,1,0,1.93,0,2.9,0,.5.18.63.64.63q3.28,0,6.57,0c.42,0,.63-.11.61-.58,0-1,0-2.07,0-3.11,0-.46-.16-.6-.6-.59C60.47,76.64,59.37,76.63,58.26,76.63Zm51.34-.39h-7.78c0,1.3,0,2.54,0,3.77a.61.61,0,0,0,.45.43q3.42,0,6.84,0c.15,0,.45-.22.45-.34C109.61,78.82,109.6,77.54,109.6,76.24Zm10.89-2.55V69.41c-2.48,0-4.89,0-7.31,0-.13,0-.37.27-.38.41q0,1.69,0,3.39a.63.63,0,0,0,.43.44C115.62,73.7,118,73.69,120.49,73.69Zm0,2.49c-2.51,0-5,0-7.39,0a.51.51,0,0,0-.34.38q0,1.73,0,3.45c0,.15.26.41.39.41,2.31,0,4.61,0,6.92,0,.14,0,.4-.2.4-.32C120.54,78.84,120.53,77.55,120.53,76.18Zm-77.08.47c0,1.21,0,2.36,0,3.5,0,.57.14.77.73.76,1.75,0,3.5,0,5.25,0s1.76,0,1.76-1.76V76.65Zm0-6.75v4.17h7.62V69.9ZM82.24,59.8a3.07,3.07,0,0,0,.2-6.14,3.07,3.07,0,1,0-.2,6.14Z"/><path class="cls-5" d="M61.13,63.22c0-1.67,0-3.12,0-4.56a1,1,0,0,1,.37-.61c3.22-2.65,6.45-5.28,9.67-7.92l7.89-6.49,2.74-2.24a2.8,2.8,0,0,1-.21-.74q0-5.88,0-11.76c0-.08,0-.17.07-.44a5.16,5.16,0,0,1,1,.36,4.54,4.54,0,0,0,5.22-.41A3.37,3.37,0,0,1,91,27.79c1.89.45,1.92.48,1.92,2.39v3.89c-.93-.22-1.82-.49-2.73-.62a3.2,3.2,0,0,0-2.46.92,4.38,4.38,0,0,1-4.75.46l-.26-.07-.23.09V41.5L85.85,44l10.9,8.13c2.45,1.83,4.88,3.7,7.36,5.49a1.94,1.94,0,0,1,1,1.92c-.09,1.14,0,2.3,0,3.67L81.83,46Z"/></g></g></g></svg>