<svg xmlns="http://www.w3.org/2000/svg" viewBox="0 0 162.09 162.09"><defs><style>.cls-1{fill:#f9c450;}.cls-2,.cls-3{fill:#3e496d;}.cls-3{font-size:10.63px;font-family:Gibson-Regular, Gibson;}.cls-4{letter-spacing:-0.02em;}.cls-5,.cls-6{font-family:Gibson-SemiBold, Gibson;font-weight:700;}.cls-6{font-size:11.96px;}.cls-7{letter-spacing:-0.02em;}.cls-8{letter-spacing:-0.09em;}.cls-9{letter-spacing:0em;}</style></defs><title>especificidades</title><g id="Camada_2" data-name="Camada 2"><g id="Camada_1-2" data-name="Camada 1"><rect class="cls-1" width="162.09" height="162.09" rx="3" ry="3"/><g id="_6J9a65.tif" data-name="6J9a65.tif"><path class="cls-2" d="M111.84,38.52a34,34,0,0,1-4.35,6.67c-2.32,2.7-5,4.86-8.76,5.42,0,1,0,2,0,3A36.74,36.74,0,0,1,98.41,59a27.28,27.28,0,0,0-.27,4.93c0,7.85,0,15.7,0,23.55A5.77,5.77,0,0,1,98,88.92a3,3,0,0,1-5.91-.35A7.66,7.66,0,0,1,92,87.4q0-11.64,0-23.27v-.85l-.2-.06c-.08.1-.2.2-.22.31a4.26,4.26,0,0,0,0,.62c0,7.87,0,15.74,0,23.61a3.09,3.09,0,0,1-1.89,3.15,3,3,0,0,1-4.19-2.56,8.75,8.75,0,0,1,0-.89c0-9,0-17.91,0-26.86,0-.89-.36-1.77-.37-2.65Q85,51.77,85,45.59a1.35,1.35,0,0,0-.81-1.45c-1.66-.87-3.26-1.86-5-2.85a7.83,7.83,0,0,0,3.46-3.55c.9.51,1.77,1.34,2.69,0A7.93,7.93,0,0,0,89,41.32c-.44.36-1.14.55-.76,1.26a5.81,5.81,0,0,1,2.14-.69c.66.07,1.25.74,1.94,1.19-.08,0,0,0,0,0,.63-.88,1.33-.7,2.16-.26,1.12.6,2.29,1.09,3.43,1.62a3,3,0,0,0,3.41-.37,21.52,21.52,0,0,0,4.92-6c.26-.43.5-.88.74-1.32a2.52,2.52,0,0,1,2.56-1.41,2.48,2.48,0,0,1,2.2,1.72,1.64,1.64,0,0,0,.14.22Z"/><path class="cls-2" d="M53.56,51c-4.08-.92-6.74-3.48-9-6.51a47.92,47.92,0,0,1-3-4.71,2.58,2.58,0,1,1,4.5-2.48,25.72,25.72,0,0,0,4.84,6.59,2.77,2.77,0,0,0,3.31.5c1.3-.58,2.6-1.16,3.87-1.81.65-.34,1.17-.43,1.64.23a1.31,1.31,0,0,0,.25.22c.62-.37,1.21-.74,1.83-1.08a1.06,1.06,0,0,1,1.15.14c1.37.82,2.77,1.6,4.28,2.47,0,2.84,0,5.9,0,9a26.83,26.83,0,0,1-.15,4.75c-.55,2.91-.28,5.82-.31,8.73-.05,6.79,0,13.58,0,20.37a6.28,6.28,0,0,1-.12,1.44,3,3,0,0,1-5.91-.31,6.71,6.71,0,0,1-.08-1.1V64.1c0-.2,0-.41,0-.62s-.12-.16-.18-.24c-.08.09-.21.17-.23.26a2.53,2.53,0,0,0,0,.55c0,7.9,0,15.79,0,23.69a3.19,3.19,0,0,1-1.36,2.85,3,3,0,0,1-4.72-2.23c0-.3,0-.6,0-.9q0-11.11,0-22.23c0-1.57,0-3.13,0-4.7a4.72,4.72,0,0,0-.11-.74,16.71,16.71,0,0,1-.38-2.3C53.53,55.35,53.56,53.21,53.56,51Z"/><path class="cls-2" d="M75.76,63.21c-.08.1-.2.19-.22.3a3.22,3.22,0,0,0,0,.62q0,11.85,0,23.68a3,3,0,1,1-6.07.57c0-.3,0-.6,0-.9q0-13.08,0-26.16c0-.75-.18-1.5-.25-2.25s-.23-1.69-.24-2.53c0-3.78,0-7.55,0-11.32a.89.89,0,0,0-.52-.92c-1.73-.95-3.43-2-5.23-3a7.83,7.83,0,0,0,3.45-3.56c.9.57,1.79,1.29,2.71,0A7.85,7.85,0,0,0,73,41.34c-.55.31-1.13.53-.77,1.38,1.43-1.16,2.81-1.33,3.78.36.75-.39,1.37-.76,2-1a1.17,1.17,0,0,1,.83.11c1.16.6,2.29,1.27,3.46,1.87a.86.86,0,0,1,.52.92c-.09,4.3.16,8.64-.32,12.89-.56,4.94-.33,9.86-.41,14.79s0,9.9,0,14.84A6.37,6.37,0,0,1,82,88.85a3,3,0,0,1-5.9-.08A6.32,6.32,0,0,1,76,87.54V63.28Z"/><path class="cls-2" d="M76.12,41.43a6.64,6.64,0,1,1,6.67-6.6A6.7,6.7,0,0,1,76.12,41.43Z"/><path class="cls-2" d="M66.73,34.89a6.65,6.65,0,1,1-6.38-6.73A6.65,6.65,0,0,1,66.73,34.89Z"/><path class="cls-2" d="M92.15,41.43a6.64,6.64,0,1,1,6.69-6.58A6.67,6.67,0,0,1,92.15,41.43Z"/><path class="cls-2" d="M94.11,41.73a7.79,7.79,0,0,0,4.28-3.34c.81.4,1.62.73,2.37,1.17a2.37,2.37,0,0,1-2.05,4.24C97.22,43.2,95.78,42.49,94.11,41.73Z"/><path class="cls-2" d="M53.68,38.46a7.64,7.64,0,0,0,4.37,3.29c-1.63.74-3.07,1.46-4.55,2a2.33,2.33,0,0,1-2.93-1.27,2.36,2.36,0,0,1,1-3C52.19,39.13,52.91,38.83,53.68,38.46Z"/></g><text class="cls-3" transform="translate(14.25 132.84)">ESPECIFICI<tspan class="cls-4" x="49.93" y="0">D</tspan><tspan x="57.01" y="0">ADES </tspan><tspan class="cls-5" x="84.64" y="0">SOCIAIS, </tspan><tspan class="cls-6"><tspan x="0" y="13.29">ÉTNIC</tspan><tspan class="cls-7" x="33.12" y="13.29">A</tspan><tspan x="41.01" y="13.29">S E CU</tspan><tspan class="cls-8" x="75.04" y="13.29">L</tspan><tspan class="cls-9" x="79.62" y="13.29">TURAIS</tspan></tspan></text></g></g></svg>