<svg xmlns="http://www.w3.org/2000/svg" viewBox="0 0 162.09 162.09"><defs><style>.cls-1{fill:#f9c450;}.cls-2{font-size:10.63px;font-family:Gibson-Regular, Gibson;}.cls-2,.cls-9{fill:#3e496d;}.cls-3{letter-spacing:-0.01em;}.cls-4{letter-spacing:0em;}.cls-5{letter-spacing:-0.02em;}.cls-6{font-family:Gibson-SemiBold, Gibson;font-weight:700;}.cls-7{letter-spacing:-0.01em;}.cls-8{letter-spacing:0em;}</style></defs><title>ingresso</title><g id="Camada_2" data-name="Camada 2"><g id="Camada_1-2" data-name="Camada 1"><rect class="cls-1" width="162.09" height="162.09" rx="3" ry="3"/><text class="cls-2" transform="translate(14.25 132.84)"><tspan class="cls-3">F</tspan><tspan class="cls-4" x="5.09" y="0">ORM</tspan><tspan class="cls-5" x="28.26" y="0">A</tspan><tspan x="34.96" y="0">S DE</tspan><tspan class="cls-6"><tspan x="0" y="13.29">INGRE</tspan><tspan class="cls-7" x="31.23" y="13.29">S</tspan><tspan class="cls-8" x="36.99" y="13.29">SO</tspan></tspan></text><g id="CEOoAZ.tif"><path class="cls-9" d="M99.39,57V34.12H61.73V84.31H99.39V84c0-1.86,0-3.72,0-5.58a.77.77,0,0,1,.1-.4c1.3-2.36,2.62-4.72,3.94-7.07,0-.06.07-.11.14-.22v.31c0,4.43,0,8.87,0,13.3a5.8,5.8,0,0,1-.18,1.38,3.75,3.75,0,0,1-3.56,2.76H61.63A4.16,4.16,0,0,1,59,87.68a3.85,3.85,0,0,1-1.44-3c0-.13,0-.25,0-.38q0-25,0-49.93A4.81,4.81,0,0,1,58,32.2a3.82,3.82,0,0,1,3.49-2.29H99.32a4,4,0,0,1,2.75.9,4.19,4.19,0,0,1,1.5,3.29c0,2.18,0,4.35,0,6.53v8.72a.87.87,0,0,1-.09.4l-3.94,7.07A1.73,1.73,0,0,1,99.39,57Z"/><path class="cls-9" d="M92.22,80.12c0-.12,0-.2,0-.28,0-1.5,0-3,0-4.51a.88.88,0,0,1,.11-.42L107.07,49.6l.14-.23,4.19,2.41-.15.27L96.64,77.33a.78.78,0,0,1-.24.27l-4,2.44Z"/><path class="cls-9" d="M65.31,50.82v-3H95.78v3Z"/><path class="cls-9" d="M95.79,61.63v2.95H65.32V61.63Z"/><path class="cls-9" d="M88.61,40.7v2.94H65.32V40.7Z"/><path class="cls-9" d="M65.31,57.4V54.45H88.6V57.4Z"/><path class="cls-9" d="M88.62,68.2v3H65.32v-3Z"/><path class="cls-9" d="M71,78.11A2.91,2.91,0,1,1,68,75.22,2.92,2.92,0,0,1,71,78.11Z"/><path class="cls-9" d="M80.17,78.17a2.91,2.91,0,1,1-2.89-2.91A2.9,2.9,0,0,1,80.17,78.17Z"/><path class="cls-9" d="M114.17,47.39l-1.62,2.83-4.2-2.41L110,45Z"/></g></g></g></svg>