<svg xmlns="http://www.w3.org/2000/svg" viewBox="0 0 162.09 162.09"><defs><style>.cls-1{fill:#f9c450;}.cls-2,.cls-3{fill:#3e496d;}.cls-3{font-size:10.63px;font-family:Gibson-SemiBold, Gibson;font-weight:700;}.cls-4{letter-spacing:-0.01em;}</style></defs><title>profissoes</title><g id="Camada_2" data-name="Camada 2"><g id="Camada_1-2" data-name="Camada 1"><rect class="cls-1" width="162.09" height="162.09" rx="3" ry="3"/><g id="_29L4Ju.tif" data-name="29L4Ju.tif"><path class="cls-2" d="M63.82,45.2v-.65c0-.13,0-.25.07-.38a5,5,0,0,1,.62-2,3.88,3.88,0,0,1,3.44-2c1.56-.05,3.13,0,4.69,0a2,2,0,0,1,2.07,1.33c1.07,2.38,2.16,4.75,3.24,7.12a.87.87,0,0,0,.83.62.85.85,0,0,0,.79-.61c.38-.84.76-1.67,1.15-2.5.73-1.61,1.47-3.21,2.2-4.81a1.74,1.74,0,0,1,1.64-1.13c1.68,0,3.36,0,5,0a3.84,3.84,0,0,1,3.44,2,5.21,5.21,0,0,1,.63,2.65l0,19.94a2,2,0,0,1-1,1.84c-.08,0-.19.15-.19.23,0,.78,0,1.57,0,2.4H93a1.42,1.42,0,0,1,1.59,1.59V82.37a1.41,1.41,0,0,1-1.51,1.53H89.15a1.38,1.38,0,0,1-1.49-1.5V70.73a1.37,1.37,0,0,1,1.4-1.44c.2,0,.4,0,.63,0,0-.84,0-1.62,0-2.41a.32.32,0,0,0-.14-.22,2,2,0,0,1-.9-1.86c0-4.95,0-9.9,0-14.85v-.47h-2v.41l-.06,33.83c0,2,0,3.94,0,5.9a2.74,2.74,0,0,1-1.57,2.65,4.49,4.49,0,0,1-1.53.44,3.24,3.24,0,0,1-3.79-3.37c.07-6.35,0-12.72,0-19.08v-.44H77.91V89.47a3,3,0,0,1-.81,2.26,4,4,0,0,1-4.64.48A2.94,2.94,0,0,1,71,89.47Q71,69.7,71,49.94v-.48h-2v.46q0,7.52,0,15a1.88,1.88,0,0,1-.87,1.7c-1.22.83-3.86.57-4.22-1.41v-20Z"/><path class="cls-2" d="M79.36,24.72a16,16,0,0,1,2.2.67,6.24,6.24,0,1,1-3.69-.6,2.68,2.68,0,0,0,.27-.07Z"/><path class="cls-2" d="M63.82,45.2v0Z"/><path class="cls-2" d="M78.78,47.8c-.39-.86-.75-1.63-1.1-2.41a.61.61,0,0,1,0-.27.2.2,0,0,1,.06-.13,1.7,1.7,0,0,0,0-2.12,15.34,15.34,0,0,1-.84-1.73c-.25-.55,0-1,.61-1H80c.62,0,.88.42.61,1-.38.82-.77,1.64-1.17,2.45a.54.54,0,0,0,0,.63,1.65,1.65,0,0,1,0,2A13.76,13.76,0,0,0,78.78,47.8Z"/></g><text class="cls-3" transform="translate(14.25 146.12)">PROFI<tspan class="cls-4" x="29.5" y="0">S</tspan><tspan x="35.26" y="0">SÕES</tspan></text></g></g></svg>