<svg xmlns="http://www.w3.org/2000/svg" viewBox="0 0 162.09 162.09"><defs><style>.cls-1{fill:#f9c450;}.cls-2,.cls-3{fill:#3e496d;}.cls-3{font-size:10.63px;font-family:Gibson-Regular, Gibson;}.cls-4{letter-spacing:-0.02em;}.cls-5{font-family:Gibson-SemiBold, Gibson;font-weight:700;}</style></defs><title>programas-sociais</title><g id="Camada_2" data-name="Camada 2"><g id="Camada_1-2" data-name="Camada 1"><rect class="cls-1" width="162.09" height="162.09" rx="3" ry="3"/><g id="TggywQ.tif"><path class="cls-2" d="M91.79,59.67a10.31,10.31,0,1,1-20.61-.22A10.46,10.46,0,0,1,81.52,49.18,10.33,10.33,0,0,1,91.79,59.67Z"/><path class="cls-2" d="M89.56,48.51l-2.44-1.46c1.39-2.35,2.65-4.59,4-6.77a3.21,3.21,0,0,0,.22-3.85,5.78,5.78,0,0,1,2.55-7.87,6,6,0,0,1,7.91,2,5.87,5.87,0,0,1-1.56,8.14,7,7,0,0,1-3.61,1.07,2.53,2.53,0,0,0-2.52,1.53c-1.3,2.32-2.71,4.57-4.08,6.84C90,48.27,89.84,48.32,89.56,48.51Z"/><path class="cls-2" d="M68.22,62.66l.84,2.72c-2.59.89-5,1.76-7.47,2.53a2.19,2.19,0,0,0-1.84,2,5.91,5.91,0,0,1-5.47,5,6.14,6.14,0,0,1-6.07-4,6,6,0,0,1,2.23-7.05,5.57,5.57,0,0,1,7.16.32,3,3,0,0,0,3.6.53c2-.78,4.12-1.39,6.2-2.06A3.41,3.41,0,0,1,68.22,62.66Z"/><path class="cls-2" d="M95.42,59.4c1.85.15,3.73.41,5.62.41a3,3,0,0,0,2.09-.92c1.93-2.43,4.55-3.36,7.22-2.35a6.08,6.08,0,0,1,3.88,6.32,6,6,0,0,1-5,5.27,5.75,5.75,0,0,1-6.58-3.64,2,2,0,0,0-2.11-1.43c-1.09,0-2.17-.25-3.25-.33C94.66,62.53,94.54,62.37,95.42,59.4Z"/><path class="cls-2" d="M83,73.2l3-.72c.41,1.83.82,3.59,1.21,5.35A2.38,2.38,0,0,0,89.2,80a5.66,5.66,0,0,1,4.27,6.16,6,6,0,0,1-4.69,5.49,6.08,6.08,0,0,1-6.58-3,5.75,5.75,0,0,1,1.35-7.38,2.07,2.07,0,0,0,.75-2.44C83.82,77,83.47,75.16,83,73.2Z"/><path class="cls-2" d="M72.58,49.21l-1.93,2.06a14.27,14.27,0,0,1-1.16-.92C68,48.85,66.72,47.42,64,48.3c-2.57.83-5.16-1.12-6.15-3.59a6,6,0,0,1,8.71-7.45,5.74,5.74,0,0,1,2.65,6.68A2.21,2.21,0,0,0,70,46.55C70.88,47.33,71.63,48.21,72.58,49.21Z"/></g><text class="cls-3" transform="translate(14.25 132.84)">PROGRAM<tspan class="cls-4" x="49.4" y="0">A</tspan><tspan x="56.1" y="0">S</tspan><tspan class="cls-5"><tspan x="0" y="13.29">SOCIAIS</tspan></tspan></text></g></g></svg>