<svg xmlns="http://www.w3.org/2000/svg" viewBox="0 0 162.09 162.09"><defs><style>.cls-1{fill:#f9c450;}.cls-2{font-size:10.63px;font-family:Gibson-Regular, Gibson;}.cls-2,.cls-7{fill:#3e496d;}.cls-3{font-family:Gibson-SemiBold, Gibson;font-weight:700;}.cls-4{letter-spacing:-0.02em;}.cls-5{letter-spacing:-0.02em;}.cls-6{letter-spacing:0em;}</style></defs><title>qualificacao</title><g id="Camada_2" data-name="Camada 2"><g id="Camada_1-2" data-name="Camada 1"><rect class="cls-1" width="162.09" height="162.09" rx="3" ry="3"/><text class="cls-2" transform="translate(14.25 132.84)">TIPOS DE<tspan class="cls-3"><tspan x="0" y="13.29">Q</tspan><tspan class="cls-4" x="8.38" y="13.29">U</tspan><tspan x="15.49" y="13.29">ALIFIC</tspan><tspan class="cls-5" x="46.32" y="13.29">A</tspan><tspan class="cls-6" x="53.33" y="13.29">Ç</tspan><tspan class="cls-5" x="60.24" y="13.29">Ã</tspan><tspan x="67.26" y="13.29">O</tspan></tspan></text><g id="_2gtNsL.tif" data-name="2gtNsL.tif"><path class="cls-7" d="M121.48,88.27h-8.34l3.22-7.84a11.15,11.15,0,0,1-1.19-2.09,2,2,0,0,1,.86-2,1.48,1.48,0,0,0,.56-.89c0-5.74,0-11.48,0-17.22a1.8,1.8,0,0,0-.1-.39c-1.13.53-2.24,1-3.33,1.57Q97.29,67,81.38,74.64a1.86,1.86,0,0,1-1.41,0Q57.89,64.11,35.84,53.47l-.71-.35c.25-.15.41-.28.59-.37Q57.82,42.11,79.94,31.5a1.86,1.86,0,0,1,1.41,0q22.13,10.58,44.22,21.22c.17.08.33.19.63.37-1.88.91-3.65,1.75-5.41,2.61-.9.44-2.15.68-2.59,1.4s-.18,2-.18,3c0,5,0,9.92,0,14.88a1.45,1.45,0,0,0,.64,1.37,2,2,0,0,1,.09,3.28.89.89,0,0,0-.27,1.28C119.47,83.34,120.44,85.74,121.48,88.27Z"/><path class="cls-7" d="M55.19,64.82l7.1,3.41q8.85,4.26,17.7,8.48a1.87,1.87,0,0,0,1.41,0Q93.19,71,105,65.35c.32-.15.64-.28,1.07-.46,0,.46,0,.8,0,1.14,0,4.21-.08,8.43,0,12.65a9.42,9.42,0,0,1-3.49,7.67,24.23,24.23,0,0,1-10.27,5.09,44.61,44.61,0,0,1-27.06-1.2,19.49,19.49,0,0,1-7.64-4.87,8.67,8.67,0,0,1-2.47-6.24c0-4.35,0-8.69,0-13Z"/></g></g></g></svg>