<svg xmlns="http://www.w3.org/2000/svg" viewBox="0 0 162.09 162.09"><defs><style>.cls-1{fill:#f9c450;}.cls-2{font-size:10.63px;font-family:Gibson-Regular, Gibson;}.cls-2,.cls-7{fill:#3e496d;}.cls-3{letter-spacing:-0.01em;}.cls-4{letter-spacing:-0.09em;}.cls-5{letter-spacing:-0.02em;}.cls-6{font-family:Gibson-SemiBold, Gibson;font-weight:700;}</style></defs><title>questoes_prioritarias</title><g id="Camada_2" data-name="Camada 2"><g id="Camada_1-2" data-name="Camada 1"><rect class="cls-1" width="162.09" height="162.09" rx="3" ry="3"/><text class="cls-2" transform="translate(14.25 132.84)">QUE<tspan class="cls-3" x="21.09" y="0">S</tspan><tspan class="cls-4" x="26.66" y="0">T</tspan><tspan class="cls-5" x="31.02" y="0">Ã</tspan><tspan x="37.72" y="0">O</tspan><tspan class="cls-6"><tspan x="0" y="13.29">PRIORI</tspan><tspan class="cls-4" x="33.39" y="13.29">T</tspan><tspan x="38.03" y="13.29">ÁRIA</tspan></tspan></text><g id="KqS8TM.tif"><path class="cls-7" d="M55.71,91.79c-.92-.23-1.88-.38-2.78-.7a10.5,10.5,0,0,1,2.14-20.27,10.2,10.2,0,0,1,9.25,3.32,1.38,1.38,0,0,0,1.13.44h46.17a1.85,1.85,0,0,1,1.36.49c2.12,1.89,4.27,3.74,6.42,5.61a7,7,0,0,0,.63.43v.14c-2.34,2-4.69,4.06-7,6.12a1.94,1.94,0,0,1-1.41.54q-23.07,0-46.15,0a1.62,1.62,0,0,0-1.19.49,22,22,0,0,1-2.53,2,10.94,10.94,0,0,1-4.43,1.42ZM54,78.05a3.66,3.66,0,0,1,2.77-.73,1.25,1.25,0,0,1,.45,2.26,3.35,3.35,0,0,1-1.07.39,13.13,13.13,0,0,1-1.42.14v1.5a7.64,7.64,0,0,1,1.46.09,4.34,4.34,0,0,1,1.53.69A1.42,1.42,0,0,1,58,84.06a1.61,1.61,0,0,1-1.4,1.09,4.75,4.75,0,0,1-3-.69,7,7,0,0,1-.35.93c-.26.51-.09.78.4,1a5.84,5.84,0,0,0,4.23.2,3.12,3.12,0,0,0,1.31-5.22,7.39,7.39,0,0,0-.86-.64c.19-.15.35-.26.49-.39a2.65,2.65,0,0,0-.23-4.18,4.6,4.6,0,0,0-5.12.47Z"/><path class="cls-7" d="M102.19,58.84l-4.63,4c-.83.73-1.64,1.49-2.51,2.17a2,2,0,0,1-1.15.43q-14.19,0-28.38,0a1.56,1.56,0,0,0-1.25.53A10.07,10.07,0,0,1,53.46,68.9a9.91,9.91,0,0,1-7.28-8.49A10.42,10.42,0,0,1,56.37,48.35a10,10,0,0,1,7.82,3.28,1.59,1.59,0,0,0,1.29.57q14.2,0,28.39,0a2,2,0,0,1,1.21.45C97.44,54.67,99.77,56.73,102.19,58.84Zm-46.1,3.91-.11-.2c.51-.47,1.05-.92,1.52-1.43a8,8,0,0,0,2.33-3.74,3.16,3.16,0,0,0-2.51-4,6.29,6.29,0,0,0-2.75.3c-1.48.49-1.52.77-.79,2.14,0,0,.08.06,0,0A12.6,12.6,0,0,1,56,55.07a1.54,1.54,0,0,1,1.91,2,5.05,5.05,0,0,1-1.06,2.15,36.85,36.85,0,0,1-3.3,3.43A1.76,1.76,0,0,0,53,64.41h7.12V62.75Z"/><path class="cls-7" d="M84.36,36.46c-2.5,2.18-4.93,4.3-7.38,6.4a1.38,1.38,0,0,1-.86.23c-3.58,0-7.17,0-10.76,0a1.64,1.64,0,0,0-1,.47,10.18,10.18,0,0,1-10.9,2.89A10,10,0,0,1,46.18,38a10.37,10.37,0,0,1,6-11.06,10.56,10.56,0,0,1,12.18,2.43,1.61,1.61,0,0,0,1,.44c3.58,0,7.17,0,10.76,0a1.76,1.76,0,0,1,1,.38C79.54,32.24,81.91,34.32,84.36,36.46ZM58.1,42V31a3.57,3.57,0,0,0-2.83.54c-1.44.82-1.46.79-1,2.36,0,0,.07.06.13.11l1.62-.81V42Z"/></g></g></g></svg>