<svg xmlns="http://www.w3.org/2000/svg" viewBox="0 0 162.09 162.09"><defs><style>.cls-1{fill:#f9c450;}.cls-2{font-size:10.63px;font-family:Gibson-Regular, Gibson;}.cls-2,.cls-8{fill:#3e496d;}.cls-3{letter-spacing:-0.02em;}.cls-4{letter-spacing:-0.02em;}.cls-5{font-family:Gibson-SemiBold, Gibson;font-weight:700;}.cls-6{letter-spacing:-0.02em;}.cls-7{letter-spacing:-0.02em;}</style></defs><title>saude</title><g id="Camada_2" data-name="Camada 2"><g id="Camada_1-2" data-name="Camada 1"><rect class="cls-1" width="162.09" height="162.09" rx="3" ry="3"/><text class="cls-2" transform="translate(14.11 132.84)"><tspan class="cls-3">C</tspan><tspan x="6.86" y="0">ONDIÇ</tspan><tspan class="cls-4" x="40.08" y="0">Ã</tspan><tspan x="46.78" y="0">O DE</tspan><tspan class="cls-5"><tspan class="cls-6" x="0" y="13.29">S</tspan><tspan class="cls-7" x="5.71" y="13.29">A</tspan><tspan x="12.67" y="13.29">ÚDE</tspan></tspan></text><g id="ZP5KQm.tif"><path class="cls-8" d="M85,67.67c-.48-2-.9-3.74-1.32-5.5-1-3.92-1.88-7.84-2.84-11.76a2.7,2.7,0,0,0-5.29-.15c-1.34,4.54-2.66,9.08-4,13.62-.07.24-.15.48-.25.79H66.78c-4.83,0-9.65,0-14.48,0a1.06,1.06,0,0,1-1.1-.54c-6.35-10.5-2.7-25.38,9.29-30.51,8.68-3.71,18.75-.17,23.73,8.33.31.52.59,1,1,1.69.21-.38.36-.67.52-1C89.51,36,95.15,32.08,103,32.23c8.35.17,14.16,4.6,17.47,12.1,2.78,6.31,2.37,12.66-.74,18.83a1.29,1.29,0,0,1-1.34.84q-9.46,0-18.93,0a1,1,0,0,1-1.15-.81c-1-2.68-2.14-5.35-3.23-8-.58-1.44-1.49-2.16-2.7-2.14a2.82,2.82,0,0,0-2.67,2.18Q87.54,61,85.4,66.7C85.31,67,85.2,67.2,85,67.67Z"/><path class="cls-8" d="M114.46,69.72a5.81,5.81,0,0,0-.82.54L86.84,95.92c-1.2,1.15-2.14,1.16-3.35,0q-13.15-12.58-26.3-25.2a3.64,3.64,0,0,0-.51-.31l.13-.32h16c2,0,2.78-.58,3.34-2.49s1.14-3.89,1.88-5.84l1.29,5.36c.83,3.45,1.65,6.91,2.49,10.37a2.7,2.7,0,0,0,5.27.34q2.53-6.8,5.06-13.62c.09-.25.2-.51.37-.91C93,64.7,93.55,66,94.07,67.2c.73,1.78,1.38,2.21,3.32,2.21h16.87Z"/></g></g></g></svg>